<?xml version="1.0" encoding="utf-8"?>
<!-- Generator: Adobe Illustrator 24.0.1, SVG Export Plug-In . SVG Version: 6.00 Build 0)  -->
<svg version="1.1" id="Layer_1" xmlns="http://www.w3.org/2000/svg" xmlns:xlink="http://www.w3.org/1999/xlink" x="0px" y="0px"
	 viewBox="0 0 2138.35 1480.7" style="enable-background:new 0 0 2138.35 1480.7;" xml:space="preserve">
<style type="text/css">
	.st0{fill:#35495E;}
	.st1{fill:#4338CA;}
	.st2{fill:#FFFFFF;}
</style>
<g>
	<g>
		<path class="st2" d="M1358.09,318.26c11.89,31.06,19.83,63.08,23.2,95.29c1.55,16.12,2.23,32.22,1.72,48.24
			c-0.42,16.02-2.21,31.91-4.63,47.57c-10.28,62.64-38.08,120.98-78.7,167.4c-20.24,23.26-43.64,43.53-69.16,60.29
			c-0.51,0.33-1.04,0.64-1.55,0.97c-56.88-155.21-78.43-339.21-38.26-475.21c18.96-64.04,72.74-135.79,111.61-181.76l43.12-48.28
			c-118.46,42.07-226.1,158.01-258.38,200.26C942.12,423,955.44,668.62,971.4,780.44c-0.72-0.18-1.44-0.33-2.16-0.52
			c-14.57-3.87-28.89-8.64-42.86-14.33c-13.86-5.94-27.39-12.67-40.41-20.35c-12.95-7.77-25.51-16.24-37.35-25.67
			c-11.76-9.53-22.94-19.78-33.46-30.71c-10.37-11.06-20.21-22.68-29.03-35.08c-8.66-12.49-16.93-25.31-23.98-38.85
			c-14.06-27.06-24.65-56.1-30.85-86.28c-12.51-60.33-8.59-124.93,13.09-184.51c10.69-29.82,25.43-58.59,44.22-84.95
			c4.78-6.51,9.4-13.24,14.73-19.38l7.8-9.44l8.33-8.99c5.36-6.25,11.43-11.76,17.29-17.59c2.88-2.98,6.1-5.55,9.19-8.3l9.33-8.27
			c-58.44,31.73-108.04,82.96-138.53,145.08c-31.07,61.94-42.39,134.28-32.87,204.39c9.32,70.28,40.78,137.94,88.53,191.41
			c11.86,13.46,24.98,25.76,38.64,37.39c13.8,11.5,28.48,21.92,43.71,31.49c15.38,9.35,31.48,17.46,47.99,24.66
			c16.62,6.93,33.68,12.81,51.09,17.47c34.94,8.76,71.06,12.89,106.96,11.41c8.98-0.13,17.92-1.25,26.87-1.97
			c8.9-1.28,17.84-2.22,26.64-4.07c17.69-3.14,35.09-7.83,52.02-13.74c67.89-23.37,128.04-67.3,170.61-123.85
			c42.77-56.4,67.95-125.27,71.16-194.4C1411.54,443.51,1394.1,374.32,1358.09,318.26z M1229.06,116.28l12.47,12.47
			c-16.75,18.02-32.47,36.94-46.86,56.7l-17.88-13.97C1193.11,152,1210.62,133.6,1229.06,116.28z M1056.62,754.77
			c-4.99-25.22-9.08-50.58-12.14-76.13l57.26-8.8c4.52,23.71,9.97,47.29,16.28,70.67L1056.62,754.77z M1131.57,233.11l23.9,14.12
			c-11.67,21.36-21.88,43.43-30.54,66.06l-30.16-12.8C1105.55,277.2,1117.83,254.66,1131.57,233.11z M1067.11,372.53l36.46,10.02
			c-5.6,23.48-9.65,47.29-12.28,71.24l-42.39-6.16C1053.42,422.21,1059.49,397.13,1067.11,372.53z M1039.58,524.41l47.9,1.55
			c0.05,24.09,1.36,48.23,3.81,72.22l-52.84,3.48C1037.61,575.93,1037.94,550.15,1039.58,524.41z"/>
		<path class="st2" d="M1094.77,157.63c-64.36,7.77-124.03,32.43-171.58,71.33c-47.57,38.73-82.89,90.96-100.45,148.73
			c-4.51,14.41-7.66,29.22-9.88,44.16c-2.42,14.92-3.29,30.1-3.26,45.25c0.01,30.33,4.28,60.76,13.35,90.04
			c4.18,14.77,10.22,28.94,16.46,43.1c3.56,6.85,6.64,14.03,10.72,20.64l5.86,10.12l6.42,9.8c2.03,3.37,4.27,6.58,6.62,9.73
			l6.93,9.57c5.07,6,9.8,12.41,15.21,18.21l7.97,8.92l8.49,8.46c5.45,5.97,11.78,10.88,17.6,16.62
			c-57.74-29.68-105.31-82.37-130.19-145.28c-12.87-31.3-19.67-65.14-21.14-99.15c-1.62-34.04,3.04-68.41,12.85-101.17
			c19.86-65.56,62.92-123.53,118.88-161.44c28.01-18.9,59.07-32.91,91.31-41.11c16.18-3.84,32.49-6.83,48.93-7.81
			C1062.28,155.34,1078.67,155.67,1094.77,157.63z"/>
	</g>
	<g>
		<g>
			<path class="st2" d="M464.97,1135.59h-31.96V984.57h-57.21v-29.38h146.38v29.38h-57.21V1135.59z"/>
			<path class="st2" d="M587.12,1059.57v76.02h-31.44v-180.4h31.44v75h86.59v-75h31.44v180.4h-31.44v-76.02H587.12z"/>
			<path class="st2" d="M885.04,983.8H782.98v46.39h90.46v28.61h-90.46v48.19h103.34v28.61H751.54v-180.4h133.5V983.8z"/>
			<path class="st2" d="M1117.24,1135.59l-44.47-62.88h-39.81v62.88h-31.44v-180.4h80.41c10.31,0,19.62,1.33,27.96,4
				c8.33,2.67,15.37,6.44,21.13,11.34c5.75,4.9,10.18,10.91,13.27,18.04c3.09,7.13,4.64,15.08,4.64,23.84
				c0,7.56-1.07,14.3-3.22,20.23c-2.15,5.93-5.11,11.17-8.89,15.73c-3.78,4.55-8.29,8.42-13.53,11.6
				c-5.24,3.18-11.04,5.63-17.4,7.35l48.71,68.29H1117.24z M1106.9,991.43c-6.55-5.09-15.77-7.64-27.66-7.64h-46.27v60.82h46.53
				c11.37,0,20.42-2.76,27.14-8.28c6.72-5.52,10.08-12.94,10.08-22.26C1116.72,1004.07,1113.44,996.52,1106.9,991.43z"/>
			<path class="st2" d="M1361.55,1081.21c-4.64,11.34-11.17,21.26-19.58,29.77c-8.42,8.5-18.39,15.25-29.9,20.23
				c-11.51,4.99-24.23,7.47-38.14,7.47s-26.63-2.45-38.14-7.34c-11.51-4.9-21.39-11.56-29.64-19.98
				c-8.25-8.41-14.69-18.3-19.33-29.64c-4.64-11.34-6.96-23.36-6.96-36.09c0-12.71,2.32-24.74,6.96-36.08
				c4.64-11.34,11.17-21.26,19.59-29.77c8.42-8.5,18.38-15.24,29.89-20.23c11.51-4.98,24.23-7.47,38.14-7.47
				c13.92,0,26.63,2.45,38.14,7.35c11.51,4.89,21.39,11.56,29.64,19.97c8.24,8.42,14.69,18.3,19.33,29.64
				c4.64,11.34,6.96,23.36,6.96,36.08C1368.51,1057.85,1366.19,1069.87,1361.55,1081.21z M1330.75,1020.78
				c-3.01-7.82-7.22-14.65-12.63-20.49c-5.41-5.84-11.9-10.48-19.46-13.92c-7.56-3.43-15.81-5.16-24.74-5.16
				c-8.94,0-17.14,1.68-24.61,5.03c-7.47,3.35-13.88,7.91-19.2,13.66c-5.33,5.75-9.49,12.54-12.5,20.35
				c-3.01,7.82-4.51,16.11-4.51,24.87c0,8.76,1.5,17.05,4.51,24.87c3,7.82,7.22,14.65,12.63,20.49c5.41,5.85,11.9,10.48,19.46,13.92
				c7.56,3.44,15.81,5.16,24.74,5.16c8.93,0,17.14-1.68,24.61-5.03c7.48-3.35,13.87-7.9,19.2-13.66c5.32-5.75,9.49-12.54,12.5-20.36
				c3-7.82,4.51-16.11,4.51-24.87C1335.26,1036.89,1333.76,1028.6,1330.75,1020.78z"/>
			<path class="st2" d="M1568.49,1135.59h-33.5l-18.3-43.55h-85.31l-18.56,43.55h-32.47l79.38-181.69h29.38L1568.49,1135.59z
				 M1473.91,991.79l-30.93,72.16h62.11L1473.91,991.79z"/>
			<path class="st2" d="M1755.59,1080.83c-4.64,11.08-11.21,20.66-19.72,28.73c-8.5,8.08-18.64,14.43-30.41,19.07
				c-11.77,4.64-24.7,6.96-38.78,6.96h-67.27v-180.4h67.27c14.08,0,27.02,2.28,38.78,6.83c11.77,4.55,21.91,10.87,30.41,18.94
				c8.51,8.08,15.08,17.62,19.72,28.61c4.64,11,6.96,22.85,6.96,35.57C1762.55,1057.85,1760.23,1069.74,1755.59,1080.83z
				 M1724.79,1020.94c-3.02-7.5-7.24-14.02-12.66-19.54c-5.43-5.52-12.02-9.83-19.77-12.94c-7.76-3.11-16.37-4.66-25.84-4.66h-35.66
				v123.19h35.66c9.47,0,18.08-1.51,25.84-4.53c7.75-3.02,14.34-7.24,19.77-12.68c5.43-5.44,9.65-11.91,12.66-19.41
				c3.01-7.51,4.52-15.75,4.52-24.72C1729.31,1036.68,1727.8,1028.44,1724.79,1020.94z"/>
		</g>
		<g>
			<path class="st2" d="M101.46,1276.56v168.29h-13.4v-168.29H25.17v-12.11h139.17v12.11H101.46z"/>
			<path class="st2" d="M357.76,1390.09c-4.38,11.25-10.53,21.18-18.43,29.76c-7.91,8.6-17.49,15.43-28.74,20.49
				c-11.25,5.07-23.67,7.6-37.24,7.6c-13.75,0-26.16-2.53-37.24-7.6c-11.08-5.07-20.58-11.85-28.48-20.36
				c-7.91-8.51-14.01-18.34-18.3-29.51c-4.3-11.16-6.44-22.94-6.44-35.31v-0.51c0-12.37,2.19-24.19,6.57-35.44
				c4.38-11.25,10.52-21.18,18.43-29.77c7.9-8.59,17.44-15.42,28.6-20.49c11.17-5.07,23.62-7.6,37.37-7.6
				c13.57,0,25.94,2.53,37.11,7.6c11.16,5.07,20.7,11.86,28.61,20.36c7.9,8.51,14,18.34,18.3,29.51
				c4.29,11.17,6.44,22.94,6.44,35.31c0.17,0.17,0.17,0.34,0,0.52C364.33,1367.02,362.14,1378.84,357.76,1390.09z M350.41,1354.65
				c0-11.17-1.93-21.69-5.8-31.57c-3.87-9.88-9.2-18.47-15.98-25.78c-6.79-7.3-14.91-13.09-24.35-17.4
				c-9.45-4.29-19.76-6.44-30.92-6.44c-11.17,0-21.43,2.1-30.8,6.31c-9.36,4.21-17.44,9.96-24.23,17.27
				c-6.79,7.3-12.07,15.85-15.85,25.64c-3.78,9.8-5.67,20.28-5.67,31.44v0.52c0,11.16,1.93,21.69,5.8,31.56
				c3.87,9.89,9.19,18.48,15.98,25.78c6.79,7.31,14.9,13.1,24.35,17.4c9.45,4.3,19.76,6.44,30.93,6.44c11.16,0,21.43-2.1,30.8-6.31
				c9.36-4.21,17.44-9.96,24.23-17.26c6.79-7.31,12.07-15.85,15.85-25.64c3.78-9.79,5.67-20.27,5.67-31.44V1354.65z"/>
			<path class="st2" d="M487.26,1444.85v-180.4H615.6v12.11H500.66v71.39H604v12.11H500.66v72.68h116.23v12.11H487.26z"/>
			<path class="st2" d="M799.86,1444.85l-127.05-160.3v160.3h-12.88v-180.4h12.63l124.48,156.95v-156.95h12.88v180.4H799.86z"/>
			<path class="st2" d="M926.92,1276.56v168.29h-13.4v-168.29h-62.88v-12.11H989.8v12.11H926.92z"/>
			<path class="st2" d="M1030.52,1444.85v-180.4h128.34v12.11h-114.94v71.39h103.34v12.11h-103.34v72.68h116.23v12.11H1030.52z"/>
			<path class="st2" d="M1333.07,1444.85l-57.47-74.74h-59.02v74.74h-13.4v-180.4h75.77c9.79,0,18.64,1.25,26.54,3.74
				c7.9,2.49,14.65,6.01,20.23,10.57c5.58,4.55,9.92,9.96,13.02,16.24s4.64,13.19,4.64,20.74v0.52c0,7.56-1.33,14.3-3.99,20.23
				c-2.67,5.93-6.36,11.04-11.08,15.33c-4.73,4.3-10.31,7.78-16.75,10.44c-6.44,2.67-13.45,4.51-21,5.54l59.53,77.06H1333.07z
				 M1329.98,1316.11c0-12.23-4.51-21.88-13.53-28.95c-9.02-7.07-21.78-10.6-38.27-10.6h-61.59V1358h60.82
				c7.56,0,14.56-0.95,21-2.84c6.44-1.89,11.99-4.61,16.62-8.14c4.64-3.53,8.29-7.84,10.95-12.93c2.66-5.08,3.99-10.91,3.99-17.46
				V1316.11z"/>
			<path class="st2" d="M1516.31,1345.11c-3.78,7.22-8.89,13.23-15.33,18.04c-6.44,4.81-13.92,8.42-22.42,10.83
				c-8.51,2.41-17.49,3.61-26.93,3.61h-48.71v67.27h-13.4v-180.4h65.46c9.96,0,19.03,1.25,27.19,3.74
				c8.16,2.49,15.21,6.1,21.13,10.82c5.93,4.73,10.52,10.48,13.79,17.27c3.26,6.79,4.9,14.56,4.9,23.32v0.52
				C1521.98,1329.56,1520.09,1337.9,1516.31,1345.11z M1508.58,1320.37c0-7.26-1.33-13.6-3.99-19.05
				c-2.67-5.44-6.4-9.98-11.21-13.61c-4.81-3.63-10.57-6.39-17.27-8.29c-6.7-1.9-14.09-2.85-22.16-2.85h-51.03v88.91h49.48
				c8.42,0,16.06-1.03,22.94-3.11c6.87-2.07,12.76-5.05,17.65-8.94c4.9-3.89,8.72-8.59,11.47-14.13c2.74-5.53,4.12-11.66,4.12-18.4
				V1320.37z"/>
			<path class="st2" d="M1691.55,1444.85l-57.47-74.74h-59.02v74.74h-13.4v-180.4h75.77c9.79,0,18.64,1.25,26.54,3.74
				s14.65,6.01,20.23,10.57c5.58,4.55,9.92,9.96,13.02,16.24s4.64,13.19,4.64,20.74v0.52c0,7.56-1.33,14.3-3.99,20.23
				c-2.67,5.93-6.36,11.04-11.08,15.33c-4.73,4.3-10.31,7.78-16.75,10.44c-6.44,2.67-13.45,4.51-21,5.54l59.53,77.06H1691.55z
				 M1688.46,1316.11c0-12.23-4.51-21.88-13.53-28.95c-9.02-7.07-21.78-10.6-38.27-10.6h-61.59V1358h60.82
				c7.56,0,14.56-0.95,21-2.84c6.44-1.89,11.99-4.61,16.62-8.14c4.64-3.53,8.29-7.84,10.95-12.93c2.66-5.08,3.99-10.91,3.99-17.46
				V1316.11z"/>
			<path class="st2" d="M1749.8,1444.85v-180.4h13.4v180.4H1749.8z"/>
			<path class="st2" d="M1934.97,1418.18c-3.01,6.1-7.13,11.3-12.37,15.59c-5.24,4.3-11.51,7.65-18.82,10.06
				c-7.3,2.4-15.33,3.61-24.1,3.61c-14.43,0-27.45-2.41-39.04-7.22c-11.6-4.81-22.81-12.02-33.63-21.65l8.76-10.05
				c4.98,4.64,9.92,8.63,14.82,11.99c4.9,3.35,9.92,6.1,15.08,8.24c5.15,2.15,10.56,3.79,16.24,4.9c5.67,1.12,11.85,1.68,18.55,1.68
				c6.7,0,12.89-0.9,18.56-2.7c5.67-1.81,10.48-4.3,14.43-7.48c3.95-3.18,7.04-6.95,9.28-11.34c2.23-4.38,3.35-9.15,3.35-14.31
				v-0.51c0-4.81-0.73-9.11-2.19-12.89c-1.46-3.78-4.12-7.21-7.99-10.31c-3.87-3.09-9.06-5.88-15.59-8.37
				c-6.53-2.49-14.95-4.77-25.26-6.83c-10.83-2.23-20.1-4.85-27.83-7.86c-7.73-3-14.05-6.53-18.94-10.57
				c-4.9-4.03-8.46-8.72-10.69-14.04c-2.24-5.32-3.35-11.42-3.35-18.3v-0.52c0-6.7,1.46-12.93,4.38-18.68
				c2.92-5.75,6.96-10.78,12.11-15.08c5.15-4.3,11.25-7.64,18.29-10.05c7.04-2.41,14.77-3.61,23.2-3.61
				c13.05,0,24.35,1.8,33.89,5.42c9.54,3.61,18.85,9.11,27.96,16.49l-8.5,10.56c-8.59-7.39-17.23-12.62-25.9-15.72
				c-8.67-3.09-18-4.64-27.96-4.64c-6.7,0-12.76,0.9-18.17,2.71c-5.41,1.8-10.05,4.25-13.92,7.34c-3.87,3.1-6.83,6.7-8.89,10.83
				c-2.06,4.12-3.09,8.51-3.09,13.15v0.51c0,4.81,0.73,9.15,2.19,13.01c1.46,3.87,4.12,7.39,7.99,10.57
				c3.87,3.18,9.23,6.06,16.11,8.63c6.87,2.58,15.63,4.99,26.29,7.22c20.96,4.3,36.08,10.35,45.36,18.17
				c9.28,7.82,13.92,18.34,13.92,31.57v0.52C1939.47,1405.42,1937.97,1412.08,1934.97,1418.18z"/>
			<path class="st2" d="M1983.55,1444.85v-180.4h128.34v12.11h-114.94v71.39h103.34v12.11h-103.34v72.68h116.23v12.11H1983.55z"/>
		</g>
	</g>
</g>
</svg>
